<?xml version="1.0" encoding="utf-8"?><svg viewBox="0 0 32 33" xmlns="http://www.w3.org/2000/svg" xmlns:xlink="http://www.w3.org/1999/xlink"><style>:root>svg{display:none}:root>svg:target{display:block}</style><svg fill="none" viewBox="0 0 8 4" id="arrow" xmlns="http://www.w3.org/2000/svg"><path d="M3.475 3.894L.223.627a.37.37 0 010-.52.363.363 0 01.516 0l2.994 3.008L6.728.108a.364.364 0 01.516 0 .37.37 0 010 .52L3.992 3.893a.367.367 0 01-.517 0z" fill="#7CB238"/></svg><svg fill="none" viewBox="0 0 32 31" id="cart" xmlns="http://www.w3.org/2000/svg"><path d="M31.798 4.039a.923.923 0 00-.721-.347H6.509L5.822.715A.923.923 0 004.923 0h-4a.923.923 0 000 1.846H4.19l4.663 20.208c.097.419.47.715.9.715h18.494a.923.923 0 100-1.846h-17.76l-.71-3.077h18.532c.431 0 .806-.3.9-.72l2.77-12.308a.923.923 0 00-.18-.78zM27.569 16H9.35L6.937 5.538h22.987L27.57 16zM13.538 24a3.388 3.388 0 00-3.384 3.385 3.388 3.388 0 003.384 3.384 3.388 3.388 0 003.385-3.384A3.388 3.388 0 0013.538 24zm0 4.923A1.54 1.54 0 0112 27.385c0-.849.69-1.539 1.538-1.539.849 0 1.539.69 1.539 1.539a1.54 1.54 0 01-1.539 1.538zM24.615 24a3.388 3.388 0 00-3.384 3.385 3.388 3.388 0 003.384 3.384A3.388 3.388 0 0028 27.385 3.388 3.388 0 0024.615 24zm0 4.923a1.54 1.54 0 01-1.538-1.538c0-.849.69-1.539 1.538-1.539.849 0 1.539.69 1.539 1.539a1.54 1.54 0 01-1.539 1.538z" fill="#fff"/></svg><svg fill="none" viewBox="0 0 32 29" id="heart" xmlns="http://www.w3.org/2000/svg"><path d="M29.665 2.777C28.087.987 25.897 0 23.5 0c-3.372 0-5.506 2.014-6.703 3.703-.311.438-.575.878-.797 1.292a12.245 12.245 0 00-.797-1.292C14.006 2.013 11.872 0 8.5 0 6.103 0 3.913.986 2.335 2.777.829 4.486 0 6.774 0 9.22c0 2.662 1.04 5.139 3.272 7.793 1.994 2.373 4.864 4.818 8.187 7.65a385.452 385.452 0 013.883 3.34l.04.035a.935.935 0 001.236 0l.04-.035c1.364-1.193 2.644-2.284 3.883-3.34 3.323-2.832 6.193-5.277 8.187-7.65C30.96 14.36 32 11.883 32 9.22c0-2.446-.83-4.734-2.335-6.443zm-10.34 20.46c-1.068.909-2.167 1.845-3.325 2.852-1.158-1.007-2.257-1.943-3.325-2.853-6.503-5.542-10.8-9.203-10.8-14.016 0-1.99.663-3.837 1.866-5.203A6.258 6.258 0 018.5 1.875c2.57 0 4.232 1.584 5.174 2.912a11.113 11.113 0 011.435 2.854.937.937 0 001.782 0c.15-.461.591-1.662 1.436-2.854.94-1.328 2.602-2.912 5.173-2.912 1.851 0 3.541.76 4.759 2.142 1.203 1.366 1.866 3.213 1.866 5.203 0 4.813-4.297 8.474-10.8 14.016z" fill="#fff"/></svg><svg fill="none" viewBox="0 0 24 33" id="nav" xmlns="http://www.w3.org/2000/svg"><path d="M12 0C5.383 0 0 5.383 0 12c0 2.178.977 4.521 1.018 4.62.315.749.938 1.912 1.387 2.594l8.228 12.467c.336.51.835.804 1.367.804s1.03-.293 1.367-.804l8.229-12.467a19.277 19.277 0 001.387-2.594C23.023 16.522 24 14.18 24 12c0-6.617-5.383-12-12-12zm9.681 16.072a17.727 17.727 0 01-1.264 2.365l-8.229 12.467c-.162.247-.213.247-.376 0L3.584 18.437A17.735 17.735 0 012.32 16.07c-.012-.028-.908-2.185-.908-4.071C1.412 6.162 6.162 1.412 12 1.412c5.838 0 10.588 4.75 10.588 10.588 0 1.889-.898 4.051-.907 4.072z" fill="#000"/><path d="M12 5.648A6.36 6.36 0 005.647 12 6.36 6.36 0 0012 18.354 6.36 6.36 0 0018.353 12 6.36 6.36 0 0012 5.648zm0 11.294A4.947 4.947 0 017.059 12a4.947 4.947 0 014.94-4.941A4.947 4.947 0 0116.942 12 4.947 4.947 0 0112 16.943z" fill="#000"/></svg><svg fill="none" viewBox="0 0 26 17" id="nav_icon" xmlns="http://www.w3.org/2000/svg"><path fill="#63A60E" d="M.917 0h24.896v1H.917zM.917 8h19.917v1H.917zM.917 16h24.896v1H.917z"/></svg><svg fill="none" viewBox="0 0 24 24" id="phone" xmlns="http://www.w3.org/2000/svg"><path d="M23.309 17.938l-3.469-3.47a2.472 2.472 0 00-1.756-.72c-.694 0-1.349.274-1.844.77l-1.35 1.35c-1.05-.584-2.444-1.386-3.892-2.834-1.446-1.447-2.248-2.837-2.834-3.892l1.351-1.35c1.005-1.007 1.026-2.623.046-3.601L6.093.722A2.461 2.461 0 004.336 0c-.678 0-1.32.261-1.812.736-.298.24-1.792 1.56-2.35 4.28-.78 3.81 1.013 7.474 6.186 12.65 5.78 5.777 10.713 6.226 12.088 6.226.286 0 .459-.017.505-.023 2.695-.316 3.66-1.512 4.364-2.386.913-1.133.91-2.624-.008-3.545zm-1.151 2.61c-.662.821-1.288 1.597-3.379 1.842 0 0-.115.013-.331.013-1.23 0-5.66-.418-11.035-5.79C2.643 11.84.968 8.567 1.633 5.316 2.12 2.942 3.41 1.933 3.46 1.895l.044-.033.04-.04c.215-.214.496-.333.792-.333.27 0 .52.101.703.286l3.47 3.469c.398.399.377 1.07-.048 1.495L6.933 8.266l-.025.027c-.399.438-.352 1.031-.132 1.417.633 1.143 1.5 2.708 3.169 4.377 1.663 1.663 3.226 2.53 4.365 3.162.114.064.35.171.644.171.348 0 .668-.147.905-.416l1.434-1.434c.214-.214.495-.332.79-.332a.99.99 0 01.705.284l3.467 3.468c.44.442.258 1.117-.097 1.558zM14.54 3.649c1.28.147 2.786.922 3.838 1.974 1.062 1.062 1.839 2.584 1.979 3.877a.745.745 0 101.48-.16c-.177-1.635-1.1-3.463-2.406-4.77-1.295-1.295-3.104-2.215-4.72-2.4a.745.745 0 10-.171 1.479zM13.844 6.768c.692.08 1.65.593 2.277 1.22.633.633 1.147 1.6 1.223 2.3a.745.745 0 101.48-.16c-.129-1.195-.922-2.464-1.65-3.193-.721-.721-1.978-1.51-3.16-1.646a.744.744 0 10-.17 1.48z" fill="#31352B"/></svg><svg fill="none" viewBox="0 0 21 20" id="search" xmlns="http://www.w3.org/2000/svg"><path d="M9.02 16.472C4.477 16.472.78 12.777.78 8.236S4.476 0 9.02 0c4.545 0 8.242 3.695 8.242 8.236s-3.697 8.236-8.242 8.236zm0-14.91c-3.682 0-6.679 2.994-6.679 6.674s2.997 6.675 6.68 6.675 6.68-2.995 6.68-6.675c0-3.68-2.997-6.675-6.68-6.675zm11.53 18.21a.78.78 0 000-1.105l-3.496-3.493a.782.782 0 00-1.105 1.104l3.496 3.493a.779.779 0 001.105 0z" fill="#31352B"/></svg><svg fill="none" viewBox="0 0 25 32" id="user" xmlns="http://www.w3.org/2000/svg"><path d="M22.678 19.943a12.5 12.5 0 00-4.085-3.779 9.242 9.242 0 003.093-6.902C21.686 4.155 17.531 0 12.424 0S3.162 4.155 3.162 9.262a9.242 9.242 0 003.092 6.902 12.5 12.5 0 00-4.085 3.779A12.322 12.322 0 000 26.936V32h24.848v-5.064c0-2.505-.75-4.923-2.17-6.993zM5.101 9.263c0-4.039 3.285-7.324 7.323-7.324s7.323 3.285 7.323 7.323-3.285 7.323-7.323 7.323S5.1 13.3 5.1 9.262zM1.939 30.06v-3.125c0-4.109 2.38-7.794 6.101-9.516a9.205 9.205 0 004.384 1.104c1.585 0 3.078-.4 4.383-1.104 3.721 1.722 6.101 5.407 6.101 9.516v3.125H1.94z" fill="#fff"/></svg></svg>