<svg width="1920" height="50" viewBox="0 0 1920 50" fill="none" xmlns="http://www.w3.org/2000/svg">
<rect width="1920" height="50" fill="#31352B"/>
<path d="M1370.06 29.3623H1370.78C1371.39 28.1351 1371.88 26.91 1372.23 25.687C1372.59 24.4598 1372.85 23.1374 1373.03 21.7197H1378.44V29.3623H1379.67V33.7041H1377.78V31H1371.96V33.7041H1370.06V29.3623ZM1374.59 23.3574C1374.45 24.3265 1374.23 25.3527 1373.91 26.436C1373.6 27.5194 1373.24 28.4948 1372.85 29.3623H1376.47V23.3574H1374.59ZM1389.92 26.3472C1389.92 27.8833 1389.54 29.064 1388.78 29.8892C1388.02 30.7144 1386.93 31.127 1385.5 31.127C1384.08 31.127 1382.99 30.7144 1382.23 29.8892C1381.47 29.064 1381.09 27.8791 1381.09 26.3345C1381.09 24.7899 1381.47 23.6113 1382.23 22.7988C1382.99 21.9821 1384.09 21.5737 1385.52 21.5737C1386.94 21.5737 1388.03 21.9842 1388.79 22.8052C1389.54 23.6261 1389.92 24.8068 1389.92 26.3472ZM1383.15 26.3472C1383.15 27.384 1383.35 28.1647 1383.74 28.6895C1384.13 29.2142 1384.72 29.4766 1385.5 29.4766C1387.07 29.4766 1387.86 28.4334 1387.86 26.3472C1387.86 24.2567 1387.08 23.2114 1385.52 23.2114C1384.73 23.2114 1384.14 23.4759 1383.75 24.0049C1383.35 24.5296 1383.15 25.3104 1383.15 26.3472ZM1396.18 23.2241C1395.44 23.2241 1394.86 23.5034 1394.46 24.062C1394.05 24.6164 1393.85 25.3908 1393.85 26.3853C1393.85 28.4546 1394.62 29.4893 1396.18 29.4893C1396.83 29.4893 1397.62 29.3263 1398.54 29.0005V30.6509C1397.78 30.9683 1396.93 31.127 1395.99 31.127C1394.64 31.127 1393.61 30.7186 1392.9 29.9019C1392.18 29.0809 1391.82 27.9045 1391.82 26.3726C1391.82 25.4077 1392 24.5635 1392.35 23.8398C1392.7 23.112 1393.2 22.5555 1393.86 22.1704C1394.52 21.7811 1395.29 21.5864 1396.18 21.5864C1397.08 21.5864 1397.98 21.8044 1398.89 22.2402L1398.26 23.8398C1397.91 23.6748 1397.56 23.5309 1397.21 23.4082C1396.86 23.2855 1396.52 23.2241 1396.18 23.2241ZM1404.5 31H1402.53V23.3574H1400.01V21.7197H1407.02V23.3574H1404.5V31ZM1414.51 31L1413.84 28.791H1410.46L1409.79 31H1407.67L1410.94 21.6816H1413.35L1416.63 31H1414.51ZM1413.37 27.1406C1412.75 25.139 1412.4 24.007 1412.32 23.7446C1412.24 23.4823 1412.19 23.2749 1412.15 23.1226C1412.01 23.6642 1411.61 25.0036 1410.95 27.1406H1413.37ZM1418.2 21.7197H1421.09C1422.4 21.7197 1423.36 21.908 1423.95 22.2847C1424.55 22.6571 1424.85 23.2516 1424.85 24.0684C1424.85 24.6227 1424.71 25.0776 1424.45 25.4331C1424.19 25.7886 1423.85 26.0023 1423.42 26.0742V26.1377C1424.01 26.2689 1424.43 26.5143 1424.69 26.874C1424.95 27.2337 1425.08 27.7119 1425.08 28.3086C1425.08 29.1549 1424.77 29.8151 1424.16 30.2891C1423.55 30.763 1422.72 31 1421.67 31H1418.2V21.7197ZM1420.17 25.395H1421.31C1421.84 25.395 1422.23 25.3125 1422.46 25.1475C1422.71 24.9824 1422.83 24.7095 1422.83 24.3286C1422.83 23.9731 1422.7 23.7192 1422.43 23.5669C1422.17 23.4103 1421.76 23.332 1421.2 23.332H1420.17V25.395ZM1420.17 26.9565V29.375H1421.45C1421.99 29.375 1422.39 29.2713 1422.65 29.064C1422.91 28.8566 1423.04 28.5392 1423.04 28.1118C1423.04 27.3416 1422.49 26.9565 1421.39 26.9565H1420.17ZM1434.89 31H1432.66L1429.29 26.2964V31H1427.32V21.7197H1429.29V26.2139L1432.62 21.7197H1434.71L1431.33 26.1758L1434.89 31ZM1442.13 31L1441.46 28.791H1438.07L1437.4 31H1435.28L1438.56 21.6816H1440.96L1444.25 31H1442.13ZM1440.99 27.1406C1440.36 25.139 1440.01 24.007 1439.93 23.7446C1439.86 23.4823 1439.8 23.2749 1439.77 23.1226C1439.63 23.6642 1439.23 25.0036 1438.57 27.1406H1440.99Z" fill="white"/>
<path d="M1478.59 26.3472C1478.59 27.8833 1478.21 29.064 1477.45 29.8892C1476.69 30.7144 1475.6 31.127 1474.17 31.127C1472.75 31.127 1471.66 30.7144 1470.9 29.8892C1470.14 29.064 1469.76 27.8791 1469.76 26.3345C1469.76 24.7899 1470.14 23.6113 1470.9 22.7988C1471.66 21.9821 1472.76 21.5737 1474.19 21.5737C1475.61 21.5737 1476.7 21.9842 1477.46 22.8052C1478.21 23.6261 1478.59 24.8068 1478.59 26.3472ZM1471.82 26.3472C1471.82 27.384 1472.02 28.1647 1472.41 28.6895C1472.8 29.2142 1473.39 29.4766 1474.17 29.4766C1475.74 29.4766 1476.53 28.4334 1476.53 26.3472C1476.53 24.2567 1475.75 23.2114 1474.19 23.2114C1473.4 23.2114 1472.81 23.4759 1472.42 24.0049C1472.02 24.5296 1471.82 25.3104 1471.82 26.3472ZM1492.28 31H1490.31V26.9946H1486.64V31H1484.67V21.7197H1486.64V25.3569H1490.31V21.7197H1492.28V31ZM1500.7 31L1500.02 28.791H1496.64L1495.97 31H1493.85L1497.12 21.6816H1499.53L1502.82 31H1500.7ZM1499.55 27.1406C1498.93 25.139 1498.58 24.007 1498.5 23.7446C1498.42 23.4823 1498.37 23.2749 1498.33 23.1226C1498.19 23.6642 1497.8 25.0036 1497.13 27.1406H1499.55ZM1508.32 23.2241C1507.58 23.2241 1507.01 23.5034 1506.6 24.062C1506.2 24.6164 1505.99 25.3908 1505.99 26.3853C1505.99 28.4546 1506.77 29.4893 1508.32 29.4893C1508.97 29.4893 1509.76 29.3263 1510.69 29.0005V30.6509C1509.93 30.9683 1509.08 31.127 1508.14 31.127C1506.79 31.127 1505.76 30.7186 1505.04 29.9019C1504.33 29.0809 1503.97 27.9045 1503.97 26.3726C1503.97 25.4077 1504.14 24.5635 1504.49 23.8398C1504.85 23.112 1505.35 22.5555 1506.01 22.1704C1506.67 21.7811 1507.44 21.5864 1508.32 21.5864C1509.22 21.5864 1510.13 21.8044 1511.04 22.2402L1510.4 23.8398C1510.06 23.6748 1509.71 23.5309 1509.36 23.4082C1509.01 23.2855 1508.66 23.2241 1508.32 23.2241Z" fill="white"/>
<path d="M1544.77 31H1542.81V26.9946H1539.14V31H1537.17V21.7197H1539.14V25.3569H1542.81V21.7197H1544.77V31ZM1555.93 26.3472C1555.93 27.8833 1555.55 29.064 1554.79 29.8892C1554.03 30.7144 1552.94 31.127 1551.52 31.127C1550.09 31.127 1549 30.7144 1548.24 29.8892C1547.48 29.064 1547.1 27.8791 1547.1 26.3345C1547.1 24.7899 1547.48 23.6113 1548.24 22.7988C1549.01 21.9821 1550.1 21.5737 1551.53 21.5737C1552.96 21.5737 1554.04 21.9842 1554.8 22.8052C1555.56 23.6261 1555.93 24.8068 1555.93 26.3472ZM1549.16 26.3472C1549.16 27.384 1549.36 28.1647 1549.75 28.6895C1550.15 29.2142 1550.73 29.4766 1551.52 29.4766C1553.09 29.4766 1553.87 28.4334 1553.87 26.3472C1553.87 24.2567 1553.09 23.2114 1551.53 23.2114C1550.75 23.2114 1550.16 23.4759 1549.76 24.0049C1549.36 24.5296 1549.16 25.3104 1549.16 26.3472ZM1558.25 21.7197H1561.14C1562.45 21.7197 1563.41 21.908 1564 22.2847C1564.6 22.6571 1564.89 23.2516 1564.89 24.0684C1564.89 24.6227 1564.76 25.0776 1564.5 25.4331C1564.24 25.7886 1563.9 26.0023 1563.47 26.0742V26.1377C1564.05 26.2689 1564.48 26.5143 1564.74 26.874C1565 27.2337 1565.13 27.7119 1565.13 28.3086C1565.13 29.1549 1564.82 29.8151 1564.21 30.2891C1563.6 30.763 1562.77 31 1561.72 31H1558.25V21.7197ZM1560.22 25.395H1561.36C1561.89 25.395 1562.28 25.3125 1562.51 25.1475C1562.75 24.9824 1562.88 24.7095 1562.88 24.3286C1562.88 23.9731 1562.74 23.7192 1562.48 23.5669C1562.22 23.4103 1561.81 23.332 1561.25 23.332H1560.22V25.395ZM1560.22 26.9565V29.375H1561.5C1562.04 29.375 1562.44 29.2713 1562.7 29.064C1562.96 28.8566 1563.08 28.5392 1563.08 28.1118C1563.08 27.3416 1562.53 26.9565 1561.43 26.9565H1560.22ZM1575.8 26.3472C1575.8 27.8833 1575.41 29.064 1574.65 29.8892C1573.89 30.7144 1572.8 31.127 1571.38 31.127C1569.96 31.127 1568.86 30.7144 1568.1 29.8892C1567.34 29.064 1566.96 27.8791 1566.96 26.3345C1566.96 24.7899 1567.34 23.6113 1568.1 22.7988C1568.87 21.9821 1569.96 21.5737 1571.39 21.5737C1572.82 21.5737 1573.91 21.9842 1574.66 22.8052C1575.42 23.6261 1575.8 24.8068 1575.8 26.3472ZM1569.02 26.3472C1569.02 27.384 1569.22 28.1647 1569.61 28.6895C1570.01 29.2142 1570.59 29.4766 1571.38 29.4766C1572.95 29.4766 1573.73 28.4334 1573.73 26.3472C1573.73 24.2567 1572.95 23.2114 1571.39 23.2114C1570.61 23.2114 1570.02 23.4759 1569.62 24.0049C1569.22 24.5296 1569.02 25.3104 1569.02 26.3472ZM1582.05 23.2241C1581.31 23.2241 1580.74 23.5034 1580.33 24.062C1579.92 24.6164 1579.72 25.3908 1579.72 26.3853C1579.72 28.4546 1580.5 29.4893 1582.05 29.4893C1582.7 29.4893 1583.49 29.3263 1584.42 29.0005V30.6509C1583.66 30.9683 1582.81 31.127 1581.87 31.127C1580.52 31.127 1579.48 30.7186 1578.77 29.9019C1578.05 29.0809 1577.7 27.9045 1577.7 26.3726C1577.7 25.4077 1577.87 24.5635 1578.22 23.8398C1578.57 23.112 1579.08 22.5555 1579.73 22.1704C1580.39 21.7811 1581.17 21.5864 1582.05 21.5864C1582.95 21.5864 1583.86 21.8044 1584.77 22.2402L1584.13 23.8398C1583.79 23.6748 1583.44 23.5309 1583.09 23.4082C1582.73 23.2855 1582.39 23.2241 1582.05 23.2241ZM1590.37 31H1588.4V23.3574H1585.88V21.7197H1592.89V23.3574H1590.37V31ZM1594.71 21.7197H1596.48V26.2012L1596.45 27.4009L1596.39 28.7656H1596.43L1600.71 21.7197H1603.07V31H1601.32V26.5439C1601.32 25.9473 1601.35 25.0628 1601.43 23.8906H1601.38L1597.07 31H1594.71V21.7197Z" fill="white"/>
<path d="M366.849 31L366.176 28.791H362.793L362.12 31H360L363.275 21.6816H365.681L368.969 31H366.849ZM365.707 27.1406C365.084 25.139 364.733 24.007 364.653 23.7446C364.577 23.4823 364.522 23.2749 364.488 23.1226C364.348 23.6642 363.948 25.0036 363.288 27.1406H365.707ZM369.429 29.3623H370.146C370.76 28.1351 371.244 26.91 371.6 25.687C371.955 24.4598 372.22 23.1374 372.393 21.7197H377.802V29.3623H379.039V33.7041H377.141V31H371.327V33.7041H369.429V29.3623ZM373.955 23.3574C373.82 24.3265 373.593 25.3527 373.276 26.436C372.963 27.5194 372.609 28.4948 372.216 29.3623H375.84V23.3574H373.955ZM382.832 26.0869H383.479C384.084 26.0869 384.537 25.9684 384.838 25.7314C385.138 25.4902 385.288 25.1411 385.288 24.6841C385.288 24.2228 385.161 23.8822 384.907 23.6621C384.658 23.4421 384.264 23.332 383.727 23.332H382.832V26.0869ZM387.275 24.6143C387.275 25.613 386.962 26.3768 386.336 26.9058C385.714 27.4347 384.827 27.6992 383.676 27.6992H382.832V31H380.864V21.7197H383.828C384.954 21.7197 385.809 21.9631 386.393 22.4497C386.981 22.9321 387.275 23.6536 387.275 24.6143ZM394.762 31H389.417V21.7197H394.762V23.332H391.385V25.3696H394.527V26.9819H391.385V29.375H394.762V31ZM401.036 23.2241C400.296 23.2241 399.722 23.5034 399.316 24.062C398.91 24.6164 398.706 25.3908 398.706 26.3853C398.706 28.4546 399.483 29.4893 401.036 29.4893C401.688 29.4893 402.477 29.3263 403.404 29.0005V30.6509C402.642 30.9683 401.791 31.127 400.852 31.127C399.502 31.127 398.47 30.7186 397.754 29.9019C397.039 29.0809 396.682 27.9045 396.682 26.3726C396.682 25.4077 396.857 24.5635 397.208 23.8398C397.56 23.112 398.063 22.5555 398.719 22.1704C399.379 21.7811 400.152 21.5864 401.036 21.5864C401.937 21.5864 402.843 21.8044 403.753 22.2402L403.118 23.8398C402.771 23.6748 402.422 23.5309 402.071 23.4082C401.72 23.2855 401.375 23.2241 401.036 23.2241ZM409.541 21.7197H411.312V26.2012L411.287 27.4009L411.223 28.7656H411.261L415.546 21.7197H417.901V31H416.149V26.5439C416.149 25.9473 416.187 25.0628 416.263 23.8906H416.213L411.909 31H409.541V21.7197ZM424.4 21.7197H427.288C428.605 21.7197 429.559 21.908 430.151 22.2847C430.748 22.6571 431.046 23.2516 431.046 24.0684C431.046 24.6227 430.915 25.0776 430.653 25.4331C430.395 25.7886 430.05 26.0023 429.618 26.0742V26.1377C430.206 26.2689 430.629 26.5143 430.888 26.874C431.15 27.2337 431.281 27.7119 431.281 28.3086C431.281 29.1549 430.974 29.8151 430.361 30.2891C429.751 30.763 428.922 31 427.872 31H424.4V21.7197ZM426.368 25.395H427.511C428.044 25.395 428.429 25.3125 428.666 25.1475C428.907 24.9824 429.028 24.7095 429.028 24.3286C429.028 23.9731 428.897 23.7192 428.634 23.5669C428.376 23.4103 427.966 23.332 427.403 23.332H426.368V25.395ZM426.368 26.9565V29.375H427.65C428.192 29.375 428.592 29.2713 428.85 29.064C429.108 28.8566 429.237 28.5392 429.237 28.1118C429.237 27.3416 428.687 26.9565 427.587 26.9565H426.368ZM435.492 26.0869H436.14C436.745 26.0869 437.198 25.9684 437.498 25.7314C437.799 25.4902 437.949 25.1411 437.949 24.6841C437.949 24.2228 437.822 23.8822 437.568 23.6621C437.318 23.4421 436.925 23.332 436.387 23.332H435.492V26.0869ZM439.936 24.6143C439.936 25.613 439.623 26.3768 438.996 26.9058C438.374 27.4347 437.488 27.6992 436.337 27.6992H435.492V31H433.525V21.7197H436.489C437.615 21.7197 438.469 21.9631 439.053 22.4497C439.642 22.9321 439.936 23.6536 439.936 24.6143ZM447.422 31H442.078V21.7197H447.422V23.332H444.046V25.3696H447.188V26.9819H444.046V29.375H447.422V31ZM453.684 31L451.45 23.7192H451.393C451.473 25.2004 451.513 26.1885 451.513 26.6836V31H449.755V21.7197H452.434L454.63 28.8164H454.668L456.998 21.7197H459.676V31H457.842V26.6074C457.842 26.4001 457.844 26.161 457.848 25.8901C457.857 25.6193 457.886 24.8999 457.937 23.7319H457.88L455.487 31H453.684ZM465.532 27.439L463.361 31H461.177L463.818 26.9185C463.293 26.7069 462.891 26.381 462.612 25.9409C462.332 25.4966 462.193 24.974 462.193 24.373C462.193 23.5225 462.493 22.8687 463.094 22.4116C463.699 21.9504 464.567 21.7197 465.697 21.7197H468.718V31H466.75V27.439H465.532ZM466.75 23.332H465.779C465.271 23.332 464.878 23.423 464.598 23.605C464.319 23.7869 464.18 24.0895 464.18 24.5127C464.18 24.9232 464.315 25.2469 464.586 25.4839C464.857 25.7209 465.271 25.8394 465.83 25.8394H466.75V23.332ZM474.106 29.3623H474.824C475.437 28.1351 475.922 26.91 476.277 25.687C476.633 24.4598 476.897 23.1374 477.071 21.7197H482.479V29.3623H483.717V33.7041H481.819V31H476.004V33.7041H474.106V29.3623ZM478.632 23.3574C478.497 24.3265 478.271 25.3527 477.953 26.436C477.64 27.5194 477.287 28.4948 476.893 29.3623H480.518V23.3574H478.632ZM493.965 26.3472C493.965 27.8833 493.584 29.064 492.822 29.8892C492.06 30.7144 490.969 31.127 489.547 31.127C488.125 31.127 487.033 30.7144 486.271 29.8892C485.51 29.064 485.129 27.8791 485.129 26.3345C485.129 24.7899 485.51 23.6113 486.271 22.7988C487.037 21.9821 488.133 21.5737 489.559 21.5737C490.986 21.5737 492.075 21.9842 492.829 22.8052C493.586 23.6261 493.965 24.8068 493.965 26.3472ZM487.192 26.3472C487.192 27.384 487.389 28.1647 487.782 28.6895C488.176 29.2142 488.764 29.4766 489.547 29.4766C491.117 29.4766 491.902 28.4334 491.902 26.3472C491.902 24.2567 491.121 23.2114 489.559 23.2114C488.777 23.2114 488.186 23.4759 487.788 24.0049C487.391 24.5296 487.192 25.3104 487.192 26.3472ZM500.22 23.2241C499.479 23.2241 498.906 23.5034 498.5 24.062C498.094 24.6164 497.89 25.3908 497.89 26.3853C497.89 28.4546 498.667 29.4893 500.22 29.4893C500.872 29.4893 501.661 29.3263 502.588 29.0005V30.6509C501.826 30.9683 500.975 31.127 500.036 31.127C498.686 31.127 497.653 30.7186 496.938 29.9019C496.223 29.0809 495.865 27.9045 495.865 26.3726C495.865 25.4077 496.041 24.5635 496.392 23.8398C496.744 23.112 497.247 22.5555 497.903 22.1704C498.563 21.7811 499.336 21.5864 500.22 21.5864C501.121 21.5864 502.027 21.8044 502.937 22.2402L502.302 23.8398C501.955 23.6748 501.606 23.5309 501.255 23.4082C500.903 23.2855 500.559 23.2241 500.22 23.2241ZM508.538 31H506.57V23.3574H504.05V21.7197H511.058V23.3574H508.538V31ZM518.558 31L517.885 28.791H514.501L513.829 31H511.708L514.984 21.6816H517.39L520.678 31H518.558ZM517.415 27.1406C516.793 25.139 516.442 24.007 516.361 23.7446C516.285 23.4823 516.23 23.2749 516.196 23.1226C516.057 23.6642 515.657 25.0036 514.997 27.1406H517.415ZM522.242 21.7197H525.13C526.446 21.7197 527.401 21.908 527.993 22.2847C528.59 22.6571 528.888 23.2516 528.888 24.0684C528.888 24.6227 528.757 25.0776 528.494 25.4331C528.236 25.7886 527.891 26.0023 527.46 26.0742V26.1377C528.048 26.2689 528.471 26.5143 528.729 26.874C528.992 27.2337 529.123 27.7119 529.123 28.3086C529.123 29.1549 528.816 29.8151 528.202 30.2891C527.593 30.763 526.764 31 525.714 31H522.242V21.7197ZM524.21 25.395H525.352C525.886 25.395 526.271 25.3125 526.508 25.1475C526.749 24.9824 526.869 24.7095 526.869 24.3286C526.869 23.9731 526.738 23.7192 526.476 23.5669C526.218 23.4103 525.807 23.332 525.244 23.332H524.21V25.395ZM524.21 26.9565V29.375H525.492C526.034 29.375 526.434 29.2713 526.692 29.064C526.95 28.8566 527.079 28.5392 527.079 28.1118C527.079 27.3416 526.529 26.9565 525.429 26.9565H524.21ZM538.933 31H536.698L533.334 26.2964V31H531.366V21.7197H533.334V26.2139L536.66 21.7197H538.755L535.372 26.1758L538.933 31ZM540.491 21.7197H542.262V26.2012L542.236 27.4009L542.173 28.7656H542.211L546.496 21.7197H548.851V31H547.099V26.5439C547.099 25.9473 547.137 25.0628 547.213 23.8906H547.162L542.858 31H540.491V21.7197Z" fill="white"/>
<path d="M347.917 27.3394L346.298 24.861C345.582 23.7659 344.367 23.1119 343.046 23.1119H338.857V20.7013C338.857 19.2295 337.66 18.0327 336.188 18.0327H328.347C327.907 15.7345 325.884 13.991 323.459 13.991C320.714 13.991 318.48 16.2246 318.48 18.9697C318.48 20.6958 319.364 22.2185 320.702 23.1119H316.508C316.227 23.1119 316 23.3392 316 23.62C316 23.9007 316.227 24.128 316.508 24.128H321.587V25.1438H319.555C319.275 25.1438 319.048 25.3711 319.048 25.6519C319.048 25.9326 319.275 26.1596 319.555 26.1596H321.587V27.1754H316.508C316.227 27.1754 316 27.4027 316 27.6835C316 27.9642 316.227 28.1915 316.508 28.1915H321.587V30.4411C320.692 30.8361 320.063 31.7295 320.063 32.7694V33.2708C320.063 33.5516 320.291 33.7789 320.572 33.7789H325.077C325.365 35.0216 326.48 35.9517 327.809 35.9517C329.139 35.9517 330.253 35.0216 330.542 33.7789H340.315C340.604 35.0216 341.718 35.9517 343.048 35.9517C344.377 35.9517 345.492 35.0216 345.781 33.7789H347.492C347.773 33.7789 348 33.5516 348 33.2708V27.6172C348 27.5184 347.971 27.4216 347.917 27.3394V27.3394ZM319.496 18.9697C319.496 16.7846 321.274 15.0068 323.459 15.0068C325.644 15.0068 327.422 16.7846 327.422 18.9697C327.422 21.1547 325.644 22.9326 323.459 22.9326C321.274 22.9326 319.496 21.1547 319.496 18.9697ZM322.603 28.1915H323.619C323.9 28.1915 324.127 27.9642 324.127 27.6835C324.127 27.4027 323.9 27.1754 323.619 27.1754H322.603V26.1596H326.159C326.439 26.1596 326.667 25.9326 326.667 25.6519C326.667 25.3711 326.439 25.1438 326.159 25.1438H322.603V24.128H329.206C329.487 24.128 329.714 23.9007 329.714 23.62C329.714 23.3392 329.487 23.1119 329.206 23.1119H326.216C327.533 22.2322 328.407 20.7417 328.434 19.0485H336.189C337.1 19.0485 337.841 19.7902 337.841 20.7013V30.2231H322.61C322.607 30.2231 322.605 30.2237 322.603 30.2237V28.1915ZM337.841 32.7628H330.589C330.509 32.1786 330.249 31.6519 329.867 31.2389H337.841V32.7628ZM322.61 31.2389H325.752C325.37 31.6519 325.11 32.1786 325.031 32.7628H321.079C321.083 31.9222 321.768 31.2389 322.61 31.2389ZM327.809 34.9359C326.822 34.9359 326.017 34.132 326.017 33.1438C326.017 32.1559 326.822 31.3517 327.809 31.3517C328.798 31.3517 329.602 32.1559 329.602 33.1438C329.602 34.132 328.798 34.9359 327.809 34.9359ZM343.048 34.9359C342.06 34.9359 341.255 34.132 341.255 33.1438C341.255 32.1559 342.06 31.3517 343.048 31.3517C344.036 31.3517 344.84 32.1559 344.84 33.1438C344.84 34.132 344.036 34.9359 343.048 34.9359ZM346.984 32.7628H345.827C345.64 31.3947 344.466 30.3359 343.048 30.3359C341.629 30.3359 340.456 31.3947 340.268 32.7628H338.857V24.128H343.046C344.022 24.128 344.92 24.6096 345.447 25.4165L346.984 27.7683V32.7628Z" fill="white"/>
<path d="M343.879 33.1439C343.879 33.6029 343.507 33.9749 343.048 33.9749C342.589 33.9749 342.217 33.6029 342.217 33.1439C342.217 32.685 342.589 32.313 343.048 32.313C343.507 32.313 343.879 32.685 343.879 33.1439Z" fill="white"/>
<path d="M328.64 33.1439C328.64 33.6029 328.268 33.9749 327.809 33.9749C327.351 33.9749 326.979 33.6029 326.979 33.1439C326.979 32.685 327.351 32.313 327.809 32.313C328.268 32.313 328.64 32.685 328.64 33.1439Z" fill="white"/>
<path d="M324.127 18.9698V16.7475C324.127 16.4667 323.9 16.2397 323.619 16.2397C323.338 16.2397 323.111 16.4667 323.111 16.7475V18.8041L322.074 20.2262C321.909 20.4529 321.959 20.7703 322.185 20.9354C322.276 21.0017 322.381 21.0333 322.485 21.0333C322.641 21.0333 322.796 20.961 322.895 20.8244L324.03 19.2688C324.093 19.1822 324.127 19.0776 324.127 18.9698Z" fill="white"/>
<path d="M342.876 24.6357H341.905C341.624 24.6357 341.397 24.863 341.397 25.1438V28.6992C341.397 28.98 341.624 29.2073 341.905 29.2073H345.323C345.642 29.2073 345.927 29.0425 346.087 28.7673C346.247 28.492 346.247 28.1624 346.089 27.8878L344.903 25.8117C344.489 25.0868 343.712 24.6357 342.876 24.6357V24.6357ZM342.413 28.1915V25.6518H342.876C343.349 25.6518 343.787 25.9062 344.021 26.316L345.093 28.1915H342.413Z" fill="white"/>
<path d="M640.033 21.7197V23.3447H636.136V31H634.168V21.7197H640.033ZM650.281 26.3472C650.281 27.8833 649.9 29.064 649.139 29.8892C648.377 30.7144 647.285 31.127 645.863 31.127C644.441 31.127 643.349 30.7144 642.588 29.8892C641.826 29.064 641.445 27.8791 641.445 26.3345C641.445 24.7899 641.826 23.6113 642.588 22.7988C643.354 21.9821 644.45 21.5737 645.876 21.5737C647.302 21.5737 648.392 21.9842 649.145 22.8052C649.902 23.6261 650.281 24.8068 650.281 26.3472ZM643.508 26.3472C643.508 27.384 643.705 28.1647 644.098 28.6895C644.492 29.2142 645.08 29.4766 645.863 29.4766C647.433 29.4766 648.218 28.4334 648.218 26.3472C648.218 24.2567 647.437 23.2114 645.876 23.2114C645.093 23.2114 644.503 23.4759 644.105 24.0049C643.707 24.5296 643.508 25.3104 643.508 26.3472ZM654.562 26.0869H655.21C655.815 26.0869 656.268 25.9684 656.568 25.7314C656.869 25.4902 657.019 25.1411 657.019 24.6841C657.019 24.2228 656.892 23.8822 656.638 23.6621C656.388 23.4421 655.995 23.332 655.457 23.332H654.562V26.0869ZM659.006 24.6143C659.006 25.613 658.692 26.3768 658.066 26.9058C657.444 27.4347 656.558 27.6992 655.406 27.6992H654.562V31H652.594V21.7197H655.559C656.684 21.7197 657.539 21.9631 658.123 22.4497C658.711 22.9321 659.006 23.6536 659.006 24.6143ZM664.271 27.439L662.1 31H659.916L662.557 26.9185C662.032 26.7069 661.63 26.381 661.351 25.9409C661.071 25.4966 660.932 24.974 660.932 24.373C660.932 23.5225 661.232 22.8687 661.833 22.4116C662.438 21.9504 663.306 21.7197 664.436 21.7197H667.457V31H665.489V27.439H664.271ZM665.489 23.332H664.518C664.01 23.332 663.617 23.423 663.337 23.605C663.058 23.7869 662.919 24.0895 662.919 24.5127C662.919 24.9232 663.054 25.2469 663.325 25.4839C663.596 25.7209 664.01 25.8394 664.569 25.8394H665.489V23.332ZM677.311 31H675.344V27.4136C674.692 27.6336 674.148 27.7839 673.712 27.8643C673.281 27.9447 672.868 27.9849 672.475 27.9849C671.59 27.9849 670.907 27.7733 670.424 27.3501C669.946 26.9227 669.707 26.3239 669.707 25.5537V21.7197H671.668V24.9951C671.668 25.4437 671.772 25.7822 671.979 26.0107C672.187 26.235 672.538 26.3472 673.033 26.3472C673.38 26.3472 673.725 26.3133 674.068 26.2456C674.415 26.1737 674.84 26.0509 675.344 25.8774V21.7197H677.311V31ZM685.725 31L685.052 28.791H681.669L680.996 31H678.876L682.151 21.6816H684.557L687.845 31H685.725ZM684.582 27.1406C683.96 25.139 683.609 24.007 683.529 23.7446C683.452 23.4823 683.397 23.2749 683.364 23.1226C683.224 23.6642 682.824 25.0036 682.164 27.1406H684.582ZM692.532 27.439L690.361 31H688.178L690.819 26.9185C690.294 26.7069 689.892 26.381 689.612 25.9409C689.333 25.4966 689.194 24.974 689.194 24.373C689.194 23.5225 689.494 22.8687 690.095 22.4116C690.7 21.9504 691.568 21.7197 692.697 21.7197H695.719V31H693.751V27.439H692.532ZM693.751 23.332H692.78C692.272 23.332 691.879 23.423 691.599 23.605C691.32 23.7869 691.18 24.0895 691.18 24.5127C691.18 24.9232 691.316 25.2469 691.587 25.4839C691.857 25.7209 692.272 25.8394 692.831 25.8394H693.751V23.332ZM709.556 31H707.595V23.3574H705.322L705.221 24.208C704.958 26.3704 704.725 27.8896 704.522 28.7656C704.323 29.6374 704.031 30.251 703.646 30.6064C703.261 30.9619 702.741 31.1354 702.085 31.127C701.729 31.127 701.416 31.0804 701.145 30.9873V29.375C701.391 29.4596 701.621 29.502 701.837 29.502C702.062 29.502 702.239 29.4004 702.37 29.1973C702.502 28.9899 702.624 28.609 702.739 28.0547C702.857 27.4961 703.012 26.5841 703.202 25.3188C703.397 24.0493 703.562 22.8496 703.697 21.7197H709.556V31ZM712.288 21.7197H714.059V26.2012L714.034 27.4009L713.97 28.7656H714.009L718.293 21.7197H720.648V31H718.896V26.5439C718.896 25.9473 718.934 25.0628 719.01 23.8906H718.96L714.656 31H712.288V21.7197ZM730.985 31H729.024V26.9946H725.348V31H723.38V21.7197H725.348V25.3569H729.024V21.7197H730.985V31ZM733.724 21.7197H735.495V26.2012L735.469 27.4009L735.406 28.7656H735.444L739.728 21.7197H742.083V31H740.332V26.5439C740.332 25.9473 740.37 25.0628 740.446 23.8906H740.395L736.091 31H733.724V21.7197ZM747.939 27.439L745.768 31H743.584L746.225 26.9185C745.7 26.7069 745.298 26.381 745.019 25.9409C744.74 25.4966 744.6 24.974 744.6 24.373C744.6 23.5225 744.9 22.8687 745.501 22.4116C746.106 21.9504 746.974 21.7197 748.104 21.7197H751.125V31H749.158V27.439H747.939ZM749.158 23.332H748.186C747.679 23.332 747.285 23.423 747.006 23.605C746.726 23.7869 746.587 24.0895 746.587 24.5127C746.587 24.9232 746.722 25.2469 746.993 25.4839C747.264 25.7209 747.679 25.8394 748.237 25.8394H749.158V23.332ZM763.458 31H756.971V29.6353L759.3 27.2803C759.99 26.5736 760.441 26.0848 760.652 25.814C760.864 25.5389 761.016 25.285 761.109 25.0522C761.203 24.8195 761.249 24.5783 761.249 24.3286C761.249 23.9562 761.145 23.679 760.938 23.4971C760.735 23.3151 760.462 23.2241 760.119 23.2241C759.759 23.2241 759.41 23.3066 759.072 23.4717C758.733 23.6367 758.38 23.8716 758.012 24.1763L756.945 22.9131C757.402 22.5238 757.781 22.2487 758.082 22.0879C758.382 21.9271 758.71 21.8044 759.065 21.7197C759.421 21.6309 759.819 21.5864 760.259 21.5864C760.839 21.5864 761.351 21.6922 761.795 21.9038C762.239 22.1154 762.584 22.4116 762.83 22.7925C763.075 23.1733 763.198 23.6092 763.198 24.1001C763.198 24.5275 763.122 24.9295 762.969 25.3062C762.821 25.6785 762.588 26.0615 762.271 26.4551C761.958 26.8486 761.404 27.4093 760.608 28.1372L759.415 29.2607V29.3496H763.458V31ZM771.484 29.0767H770.367V31H768.45V29.0767H764.489V27.7119L768.558 21.7197H770.367V27.5532H771.484V29.0767ZM768.45 27.5532V25.979C768.45 25.7166 768.461 25.3358 768.482 24.8364C768.503 24.3371 768.52 24.0472 768.533 23.9668H768.482C768.325 24.3138 768.137 24.6523 767.917 24.9824L766.216 27.5532H768.45ZM777.39 21.7197L773.931 31H772.173L775.632 21.7197H777.39ZM779.285 31L782.77 23.3828H778.193V21.7324H784.852V22.9639L781.341 31H779.285Z" fill="white"/>
<path d="M620.463 30.5887L617.269 27.3933C616.84 26.9665 616.265 26.7314 615.652 26.7314C615.013 26.7314 614.41 26.9829 613.954 27.4392L612.71 28.6822C611.744 28.1452 610.46 27.4066 609.127 26.0735C607.795 24.7414 607.057 23.4611 606.517 22.4897L607.761 21.2461C608.687 20.319 608.706 18.8315 607.804 17.9304L604.61 14.7369C604.183 14.308 603.608 14.0718 602.993 14.0718C602.368 14.0718 601.778 14.3122 601.324 14.7498C601.05 14.9707 599.674 16.1857 599.161 18.6913C598.443 22.1985 600.093 25.5728 604.856 30.3385C610.178 35.6583 614.721 36.0718 615.986 36.0718C616.25 36.0718 616.409 36.0555 616.451 36.0506C618.933 35.7597 619.822 34.6575 620.47 33.8527C621.311 32.8097 621.308 31.4373 620.463 30.5887ZM619.403 32.992C618.793 33.7484 618.217 34.4628 616.292 34.6885C616.291 34.6886 616.185 34.7004 615.986 34.7004C614.854 34.7004 610.775 34.3159 605.826 29.3688C601.433 24.974 599.891 21.9601 600.504 18.9663C600.952 16.7808 602.139 15.8519 602.186 15.8166L602.227 15.7864L602.262 15.7503C602.461 15.5522 602.72 15.4431 602.993 15.4431C603.241 15.4431 603.471 15.5361 603.64 15.706L606.834 18.9002C607.202 19.2673 607.182 19.8852 606.791 20.277L605.384 21.6832L605.361 21.7074C604.994 22.1114 605.037 22.6574 605.239 23.0129C605.822 24.065 606.621 25.5058 608.157 27.0429C609.689 28.5743 611.127 29.3723 612.176 29.9541C612.282 30.0131 612.498 30.112 612.77 30.112C613.09 30.112 613.385 29.9764 613.602 29.7291L614.923 28.4086C615.12 28.2113 615.379 28.1026 615.651 28.1026C615.9 28.1026 616.131 28.196 616.3 28.364L619.492 31.5573C619.897 31.9642 619.73 32.5863 619.403 32.992Z" fill="white"/>
<path d="M612.388 17.4316C613.566 17.5671 614.953 18.2808 615.922 19.2495C616.9 20.2273 617.615 21.6286 617.744 22.8195C617.783 23.1708 618.08 23.4312 618.425 23.4312C618.45 23.4312 618.475 23.4298 618.5 23.4271C618.876 23.3863 619.149 23.048 619.108 22.6716C618.944 21.1662 618.095 19.4834 616.892 18.2799C615.7 17.0877 614.034 16.2407 612.545 16.0693C612.169 16.0257 611.829 16.2959 611.785 16.672C611.742 17.0481 612.012 17.3882 612.388 17.4316Z" fill="white"/>
<path d="M611.748 20.3038C612.385 20.3772 613.267 20.8498 613.844 21.4275C614.427 22.0102 614.9 22.9004 614.97 23.5445C615.008 23.8959 615.305 24.1563 615.651 24.1563C615.676 24.1563 615.701 24.1549 615.726 24.1523C616.102 24.1114 616.374 23.7731 616.333 23.3967C616.214 22.2971 615.484 21.1283 614.814 20.4578C614.149 19.7933 612.992 19.0668 611.904 18.9414C611.528 18.8976 611.188 19.168 611.145 19.5441C611.101 19.9203 611.371 20.2604 611.748 20.3038Z" fill="white"/>
</svg>
